<svg width="22" height="22" viewBox="0 0 22 22" fill="none" xmlns="http://www.w3.org/2000/svg">
<path d="M10 0.5C8.54131 0.5 7.14236 1.07946 6.11091 2.11091C5.07946 3.14236 4.5 4.54131 4.5 6C4.5 7.45869 5.07946 8.85764 6.11091 9.88909C7.14236 10.9205 8.54131 11.5 10 11.5C11.4587 11.5 12.8576 10.9205 13.8891 9.88909C14.9205 8.85764 15.5 7.45869 15.5 6C15.5 4.54131 14.9205 3.14236 13.8891 2.11091C12.8576 1.07946 11.4587 0.5 10 0.5ZM21.5 17.5H17.5V21.5H15.5V17.5H11.5V15.5H15.5V11.5H17.5V15.5H21.5V17.5ZM11.376 12.5C10.4821 13.6415 9.99754 15.0502 10 16.5C10 18.009 10.514 19.397 11.376 20.5H0.5V18.5C0.5 16.9087 1.13214 15.3826 2.25736 14.2574C3.38258 13.1321 4.9087 12.5 6.5 12.5H11.376Z" fill="white"/>
</svg>
