<svg width="33" height="33" viewBox="0 0 33 33" fill="none" xmlns="http://www.w3.org/2000/svg">
<path d="M28.875 11C26.8813 11 25.7675 12.98 26.2212 14.4513L21.34 19.3462C20.9275 19.2225 20.3225 19.2225 19.91 19.3462L16.4038 15.84C16.8713 14.3688 15.7575 12.375 13.75 12.375C11.7563 12.375 10.6287 14.355 11.0962 15.84L4.82625 22.0962C3.355 21.6425 1.375 22.7563 1.375 24.75C1.375 26.2625 2.6125 27.5 4.125 27.5C6.11875 27.5 7.2325 25.52 6.77875 24.0487L13.035 17.7788C13.4475 17.9025 14.0525 17.9025 14.465 17.7788L17.9712 21.285C17.5037 22.7562 18.6175 24.75 20.625 24.75C22.6187 24.75 23.7463 22.77 23.2788 21.285L28.1737 16.4038C29.645 16.8575 31.625 15.7438 31.625 13.75C31.625 12.2375 30.3875 11 28.875 11Z" fill="#693696"/>
<path d="M20.625 12.375L21.9175 9.52875L24.75 8.25L21.9175 6.97125L20.625 4.125L19.36 6.97125L16.5 8.25L19.36 9.52875L20.625 12.375ZM4.8125 15.125L5.5 12.375L8.25 11.6875L5.5 11L4.8125 8.25L4.125 11L1.375 11.6875L4.125 12.375L4.8125 15.125Z" fill="#693696"/>
</svg>
