<svg width="31" height="17" viewBox="0 0 31 17" fill="none" xmlns="http://www.w3.org/2000/svg">
<path d="M27.875 0C25.8813 0 24.7675 1.98 25.2212 3.45125L20.34 8.34625C19.9275 8.2225 19.3225 8.2225 18.91 8.34625L15.4038 4.84C15.8713 3.36875 14.7575 1.375 12.75 1.375C10.7563 1.375 9.62875 3.355 10.0962 4.84L3.82625 11.0962C2.355 10.6425 0.375 11.7563 0.375 13.75C0.375 15.2625 1.6125 16.5 3.125 16.5C5.11875 16.5 6.2325 14.52 5.77875 13.0487L12.035 6.77875C12.4475 6.9025 13.0525 6.9025 13.465 6.77875L16.9712 10.285C16.5037 11.7562 17.6175 13.75 19.625 13.75C21.6187 13.75 22.7463 11.77 22.2788 10.285L27.1737 5.40375C28.645 5.8575 30.625 4.74375 30.625 2.75C30.625 1.2375 29.3875 0 27.875 0Z" fill="#693696"/>
</svg>
