<svg width="25" height="25" viewBox="0 0 25 25" fill="none" xmlns="http://www.w3.org/2000/svg">
<path d="M2.875 0.125H22.125C22.8543 0.125 23.5538 0.414731 24.0695 0.930456C24.5853 1.44618 24.875 2.14565 24.875 2.875V22.125C24.875 23.6513 23.6513 24.875 22.125 24.875H2.875C2.14565 24.875 1.44618 24.5853 0.930456 24.0695C0.414731 23.5538 0.125 22.8543 0.125 22.125V2.875C0.125 1.3625 1.3625 0.125 2.875 0.125ZM7 19.375H18V16.625H7V19.375ZM18 9.75H14.5625V5.625H10.4375V9.75H7L12.5 15.25L18 9.75Z" fill="#4A266A"/>
</svg>
