<svg width="31" height="32" viewBox="0 0 31 32" fill="none" xmlns="http://www.w3.org/2000/svg">
<path d="M15.5 0.625C12.4591 0.625 9.48652 1.52673 6.95811 3.21615C4.42971 4.90558 2.45906 7.30683 1.29536 10.1162C0.131662 12.9257 -0.172815 16.0171 0.420433 18.9995C1.01368 21.982 2.47801 24.7215 4.62824 26.8718C6.77847 29.022 9.51804 30.4863 12.5005 31.0796C15.483 31.6728 18.5744 31.3683 21.3838 30.2046C24.1932 29.0409 26.5944 27.0703 28.2839 24.5419C29.9733 22.0135 30.875 19.0409 30.875 16C30.871 11.9235 29.2499 8.01513 26.3674 5.13262C23.4849 2.25011 19.5765 0.628971 15.5 0.625ZM14.375 7.555C14.375 7.25663 14.4935 6.97048 14.7045 6.7595C14.9155 6.54853 15.2016 6.43 15.5 6.43C15.7984 6.43 16.0845 6.54853 16.2955 6.7595C16.5065 6.97048 16.625 7.25663 16.625 7.555V14.32C16.625 14.6184 16.5065 14.9045 16.2955 15.1155C16.0845 15.3265 15.7984 15.445 15.5 15.445C15.2016 15.445 14.9155 15.3265 14.7045 15.1155C14.4935 14.9045 14.375 14.6184 14.375 14.32V7.555ZM24.005 17.95C23.6664 19.3795 22.9726 20.7004 21.9878 21.7904C21.0029 22.8805 19.759 23.7044 18.371 24.1858C16.9831 24.6672 15.4962 24.7906 14.0479 24.5446C12.5996 24.2986 11.2368 23.691 10.0858 22.7783C8.93474 21.8655 8.03263 20.677 7.46302 19.3229C6.89341 17.9688 6.67472 16.4929 6.8272 15.0318C6.97968 13.5707 7.4984 12.1717 8.33532 10.9644C9.17224 9.75704 10.3003 8.78043 11.615 8.125C11.8835 7.99372 12.1932 7.97449 12.4759 8.07154C12.7586 8.16859 12.9912 8.37397 13.1225 8.6425C13.2538 8.91103 13.273 9.22072 13.176 9.50343C13.0789 9.78614 12.8735 10.0187 12.605 10.15C11.2926 10.797 10.2391 11.871 9.61767 13.1958C8.9962 14.5205 8.84363 16.0171 9.18501 17.44C9.51522 18.8636 10.3191 20.133 11.465 21.04C12.6248 21.9232 14.0423 22.4015 15.5 22.4015C16.9578 22.4015 18.3753 21.9232 19.535 21.04C20.388 20.3592 21.0558 19.4745 21.4765 18.4675C21.8973 17.4605 22.0575 16.3637 21.9424 15.2784C21.8273 14.1931 21.4406 13.1544 20.8179 12.258C20.1953 11.3617 19.3569 10.6367 18.38 10.15C18.1115 10.0167 17.9069 9.78224 17.8112 9.49812C17.7156 9.21401 17.7367 8.90353 17.87 8.635C18.0033 8.36647 18.2378 8.16188 18.5219 8.06623C18.806 7.97059 19.1165 7.99173 19.385 8.125C21.1464 9.00757 22.5617 10.4545 23.405 12.235C24.2241 14.0247 24.4144 16.0386 23.945 17.95H24.005Z" fill="#693696"/>
</svg>
