<svg width="38" height="38" viewBox="0 0 38 38" fill="none" xmlns="http://www.w3.org/2000/svg">
<path d="M19 0.666748C8.87999 0.666748 0.666656 8.88008 0.666656 19.0001C0.666656 29.1201 8.87999 37.3334 19 37.3334C29.12 37.3334 37.3333 29.1201 37.3333 19.0001C37.3333 8.88008 29.12 0.666748 19 0.666748ZM19 8.00008C22.5383 8.00008 25.4167 10.8784 25.4167 14.4167C25.4167 17.9551 22.5383 20.8334 19 20.8334C15.4617 20.8334 12.5833 17.9551 12.5833 14.4167C12.5833 10.8784 15.4617 8.00008 19 8.00008ZM19 33.6667C15.2783 33.6667 10.8783 32.1634 7.74332 28.3867C10.955 25.8681 14.9185 24.4994 19 24.4994C23.0814 24.4994 27.045 25.8681 30.2567 28.3867C27.1217 32.1634 22.7217 33.6667 19 33.6667Z" fill="#532494"/>
</svg>
