<svg width="35" height="36" viewBox="0 0 35 36" fill="none" xmlns="http://www.w3.org/2000/svg">
<path d="M13.8537 0.512691C9.94199 0.957207 6.17248 3.46429 4.34107 6.80706C3.61206 8.17617 2.98974 10.1498 2.88305 11.5367L2.77637 12.8347H3.34535C3.87877 12.8347 3.89655 12.8169 3.89655 12.0346C3.89655 9.86534 5.03452 7.19823 6.74146 5.33126C8.8218 3.03755 11.5067 1.704 14.4405 1.50841L15.8096 1.40173V4.49557V7.58941L14.7428 8.28285C12.3602 9.81199 9.39079 10.701 6.59922 10.701H5.65684L5.71018 16.9598L5.76352 23.2364L6.26138 24.2855C7.22154 26.348 8.85737 27.8061 10.8844 28.3928L11.8979 28.6773L11.9334 32.0912L11.9868 35.5051L14.4405 35.5584L16.8765 35.6118V32.7491V29.8864L16.3964 29.9397L15.8985 29.9931L15.8452 32.2512L15.7918 34.5272H14.3694H12.9647L13.0003 31.6289L13.0536 28.7484L14.9739 28.6951L16.8765 28.6418V14.5239V0.388226L15.6852 0.423786C15.0095 0.423786 14.1916 0.477127 13.8537 0.512691ZM15.7207 24.1788C15.5251 24.3744 14.6361 23.5387 14.2983 22.8275C14.0138 22.2407 13.8537 22.0985 13.4626 22.0807C12.858 22.0807 12.858 22.2051 13.3381 23.3253C13.7115 24.1788 14.5294 24.9256 15.4184 25.1923C15.7741 25.299 15.8096 25.4234 15.8096 26.4369V27.5749L14.4405 27.6283C11.4533 27.7349 9.94199 27.2726 8.51953 25.8146C8.07501 25.3523 7.52381 24.5878 7.27488 24.1077C6.83037 23.2364 6.83037 23.2186 6.77702 17.4044L6.72368 11.5901H7.95055C10.1376 11.5901 13.267 10.5943 15.1873 9.29635L15.7207 8.92296L15.7741 16.5153C15.7918 20.676 15.7741 24.1255 15.7207 24.1788Z" fill="#4A266A"/>
<path d="M10.5644 15.3951C10.0487 15.6262 9.58643 16.3019 9.58643 16.8531C9.58643 17.351 10.0843 18.0978 10.5644 18.3111C11.2756 18.6312 11.6668 18.5778 12.2891 18.0089C13.676 16.7642 12.2713 14.6305 10.5644 15.3951ZM11.649 16.4619C11.9157 16.6753 11.9513 16.782 11.7912 17.0487C11.5423 17.4577 11.0267 17.4577 10.7777 17.0665C10.6355 16.8531 10.6533 16.6931 10.8133 16.4975C11.0978 16.1419 11.2045 16.1419 11.649 16.4619Z" fill="#4A266A"/>
<path d="M18.1211 0.921656C18.1211 1.40173 18.1744 1.45508 18.6545 1.45508H19.1879V2.69973V3.94437H18.6545C18.21 3.94437 18.1211 4.0155 18.1211 4.38889C18.1211 4.81563 18.1744 4.83341 19.1879 4.83341H20.2548V3.14424V1.45508H20.8771H21.4994V3.76657V6.07806H19.8103H18.1211V6.61148V7.1449H20.3437H22.5663V4.29999V1.45508L23.153 1.56176C24.2377 1.75735 25.909 2.68194 26.638 3.51764C27.7938 4.83341 28.1316 5.74022 28.2205 7.71388L28.2917 9.45639H28.8073H29.3229V8.0695C29.3229 5.70466 28.5939 3.94437 27.0292 2.46858C25.3223 0.868314 23.7398 0.388235 20.2192 0.388235H18.1211V0.921656Z" fill="#4A266A"/>
<path d="M30.3543 0.654952C29.3408 1.22393 29.1985 2.41524 30.0342 3.26871C30.5143 3.74879 30.5676 3.90882 30.5676 4.9401V6.07806H31.1011H31.6345V4.90454C31.6345 3.8377 31.67 3.71323 32.1679 3.28649C33.6081 2.09519 31.9901 -0.251864 30.3543 0.654952ZM31.5278 1.73957C31.7412 1.95294 31.7589 2.09519 31.6345 2.3619C31.4389 2.71751 31.2966 2.77085 30.8521 2.59305C30.5143 2.46858 30.4787 1.97072 30.781 1.66845C31.0655 1.38396 31.19 1.40174 31.5278 1.73957Z" fill="#4A266A"/>
<path d="M30.5679 10.0787V12.8347H31.1013H31.6347V10.0787V7.32269H31.1013H30.5679V10.0787Z" fill="#4A266A"/>
<path d="M18.6545 8.92297C18.6545 9.40305 18.7079 9.45639 19.188 9.45639C19.668 9.45639 19.7214 9.40305 19.7214 8.92297C19.7214 8.44289 19.668 8.38955 19.188 8.38955C18.7079 8.38955 18.6545 8.44289 18.6545 8.92297Z" fill="#4A266A"/>
<path d="M21.4995 8.92297C21.4995 9.40305 21.5529 9.45639 22.0329 9.45639C22.513 9.45639 22.5664 9.40305 22.5664 8.92297C22.5664 8.44289 22.513 8.38955 22.0329 8.38955C21.5529 8.38955 21.4995 8.44289 21.4995 8.92297Z" fill="#4A266A"/>
<path d="M24.3447 8.92297C24.3447 9.40305 24.3981 9.45639 24.8781 9.45639C25.3582 9.45639 25.4116 9.40305 25.4116 8.92297C25.4116 8.44289 25.3582 8.38955 24.8781 8.38955C24.3981 8.38955 24.3447 8.44289 24.3447 8.92297Z" fill="#4A266A"/>
<path d="M18.1211 11.1455V11.5901H23.2064H28.2739L28.2205 17.4043L28.1672 23.2364L27.6871 24.1432C27.1003 25.2634 25.7846 26.5614 24.7711 27.0415C23.562 27.6105 22.6552 27.7527 20.3081 27.7705H18.1211V28.2328V28.6951L21.1083 28.624C23.9176 28.5706 24.131 28.5351 25.0556 28.0905C27.0114 27.1304 28.4517 25.459 29.0384 23.5031C29.2696 22.7208 29.3229 21.5295 29.3229 16.622V10.701H23.722H18.1211V11.1455Z" fill="#4A266A"/>
<path d="M21.3216 13.866C20.397 14.3283 19.8992 15.1818 19.8992 16.302C19.8992 19.1113 23.2419 20.0715 24.9489 17.76C25.2156 17.3866 25.3223 16.9954 25.3223 16.302C25.3223 15.2351 24.9667 14.6128 23.9887 13.9371C23.2775 13.457 22.1929 13.4215 21.3216 13.866ZM23.2775 14.7373C23.2775 14.8973 22.7085 15.5018 22.5663 15.5018C22.4952 15.5018 22.2996 15.3062 22.1395 15.0573L21.855 14.6128H22.5663C22.9574 14.6128 23.2775 14.6661 23.2775 14.7373ZM21.5528 16.6042C21.3927 16.782 21.2149 16.9243 21.1438 16.9243C20.9482 16.9243 20.806 16.2664 20.9127 15.8397C21.0194 15.484 21.0194 15.484 21.4283 15.8752C21.8195 16.2486 21.8373 16.302 21.5528 16.6042ZM24.3443 16.3197C24.3443 16.9776 24.3088 17.0132 23.7931 16.7465C23.3842 16.5153 23.3664 16.2486 23.7398 15.8397C24.131 15.3951 24.3443 15.573 24.3443 16.3197ZM22.9574 17.4044C23.4197 17.8311 23.3486 17.9911 22.6907 17.9911C21.9262 17.9911 21.7839 17.8311 22.1573 17.4221C22.5129 17.031 22.5485 17.031 22.9574 17.4044Z" fill="#4A266A"/>
<path d="M2.1008 14.5595C0.785028 15.2351 0.127142 16.2131 0.0204581 17.6178C-0.0862261 18.9869 0.216046 19.8403 1.12286 20.7294C1.86965 21.4762 2.86537 21.9029 3.87887 21.9029H4.43007V17.9912V14.0794H3.7544C3.36323 14.0794 2.652 14.2928 2.1008 14.5595ZM3.36323 18.0089C3.36323 21.1917 3.41657 21.1028 2.17192 20.2493C0.57166 19.1647 0.696124 16.5331 2.40307 15.5552C2.77647 15.3241 3.14986 15.1462 3.23876 15.1462C3.30989 15.1462 3.36323 16.4265 3.36323 18.0089Z" fill="#4A266A"/>
<path d="M30.5679 17.9912V21.9029H31.1191C32.666 21.9029 34.3729 20.7294 34.8352 19.3247C35.1731 18.3112 34.9775 16.9065 34.3729 15.9108C33.7684 14.9151 32.3459 14.0794 31.2435 14.0794H30.5679V17.9912ZM32.4882 15.4841C33.8395 16.1775 34.3729 18.1867 33.5372 19.4314C33.1639 20.0004 32.1148 20.8361 31.7947 20.8361C31.7058 20.8361 31.6347 19.5559 31.6347 17.9912C31.6347 16.4265 31.6703 15.1462 31.7236 15.1462C31.777 15.1462 32.1326 15.3063 32.4882 15.4841Z" fill="#4A266A"/>
<path d="M18.1211 21.3695C18.1211 21.8496 18.1744 21.9029 18.6545 21.9029H19.1879V23.1476V24.3922H18.6545C18.21 24.3922 18.1211 24.4633 18.1211 24.8367V25.2812H20.6637C22.8863 25.2812 23.2597 25.2279 23.7754 24.9256C25.2334 24.0366 25.1089 21.8496 23.5442 21.1206C23.0997 20.9072 22.3707 20.8361 20.5393 20.8361H18.1211V21.3695ZM21.4639 23.0942L21.4105 24.3033H20.8771H20.3437L20.2903 23.0942L20.237 21.9029H20.8771H21.5172L21.4639 23.0942ZM23.4375 22.3652C23.8998 22.952 23.9176 23.3965 23.4553 23.8588C22.7796 24.5344 22.5663 24.3389 22.5663 23.0586C22.5663 21.7607 22.8152 21.5651 23.4375 22.3652Z" fill="#4A266A"/>
<path d="M21.4994 31.0599V32.2156H19.8103H18.1211V32.7491V33.2825H21.7661H25.4112V33.9048V34.5271H21.7661H18.1211V35.0606V35.594H22.2996H26.478V33.9048V32.2156H24.5221H22.5663V31.0599V29.9042H22.0328H21.4994V31.0599Z" fill="#4A266A"/>
</svg>
