<svg width="28" height="28" viewBox="0 0 28 28" fill="none" xmlns="http://www.w3.org/2000/svg">
<path d="M2.915 1.02882C1.80125 0.471949 0.566567 1.53132 0.947192 2.71726L3.62657 11.0451C3.67924 11.2088 3.77594 11.3549 3.90607 11.4673C4.0362 11.5797 4.19476 11.6542 4.36438 11.6826L15.4916 13.5379C16.0138 13.6251 16.0138 14.3751 15.4916 14.4623L4.36532 16.3166C4.19552 16.3448 4.03677 16.4192 3.90646 16.5317C3.77615 16.6441 3.67932 16.7903 3.62657 16.9541L0.947192 25.2848C0.565629 26.4707 1.80032 27.5301 2.915 26.9732L26.3469 15.2591C27.3838 14.7407 27.3838 13.2623 26.3469 12.7429L2.915 1.02882Z" fill="#4A266A"/>
</svg>
