<svg width="25" height="25" viewBox="0 0 25 25" fill="none" xmlns="http://www.w3.org/2000/svg">
<rect width="25" height="25" rx="4" fill="#4A266A"/>
<path fill-rule="evenodd" clip-rule="evenodd" d="M18.3433 7.41659L17.6758 18.7641C17.651 19.1886 17.4648 19.5875 17.1554 19.8792C16.846 20.1709 16.4369 20.3333 16.0117 20.3333H9.98833C9.56312 20.3333 9.15395 20.1709 8.84458 19.8792C8.53521 19.5875 8.34904 19.1886 8.32416 18.7641L7.65833 7.41659H5.91666V6.58325C5.91666 6.47274 5.96056 6.36676 6.0387 6.28862C6.11684 6.21048 6.22282 6.16659 6.33333 6.16659H19.6667C19.7772 6.16659 19.8832 6.21048 19.9613 6.28862C20.0394 6.36676 20.0833 6.47274 20.0833 6.58325V7.41659H18.3433ZM11.3333 4.08325H14.6667C14.7772 4.08325 14.8832 4.12715 14.9613 4.20529C15.0394 4.28343 15.0833 4.38941 15.0833 4.49992V5.33325H10.9167V4.49992C10.9167 4.38941 10.9606 4.28343 11.0387 4.20529C11.1168 4.12715 11.2228 4.08325 11.3333 4.08325ZM10.5 9.49992L10.9167 16.9999H12.1667L11.8333 9.49992H10.5ZM14.25 9.49992L13.8333 16.9999H15.0833L15.5 9.49992H14.25Z" fill="#FEFEFE"/>
</svg>
